<?xml version="1.0" encoding="utf-8" standalone="no"?>
<!DOCTYPE svg PUBLIC "-//W3C//DTD SVG 1.1//EN"
  "http://www.w3.org/Graphics/SVG/1.1/DTD/svg11.dtd">
<svg xmlns:xlink="http://www.w3.org/1999/xlink" width="504pt" height="432pt" viewBox="0 0 504 432" xmlns="http://www.w3.org/2000/svg" version="1.1">
 <metadata>
  <rdf:RDF xmlns:dc="http://purl.org/dc/elements/1.1/" xmlns:cc="http://creativecommons.org/ns#" xmlns:rdf="http://www.w3.org/1999/02/22-rdf-syntax-ns#">
   <cc:Work>
    <dc:type rdf:resource="http://purl.org/dc/dcmitype/StillImage"/>
    <dc:date>2023-07-29T19:46:54.702626</dc:date>
    <dc:format>image/svg+xml</dc:format>
    <dc:creator>
     <cc:Agent>
      <dc:title>Matplotlib v3.5.1, https://matplotlib.org/</dc:title>
     </cc:Agent>
    </dc:creator>
   </cc:Work>
  </rdf:RDF>
 </metadata>
 <defs>
  <style type="text/css">*{stroke-linejoin: round; stroke-linecap: butt}</style>
 </defs>
 <g id="figure_1">
  <g id="patch_1">
   <path d="M 0 432 
L 504 432 
L 504 0 
L 0 0 
z
" style="fill: #ffffff"/>
  </g>
  <g id="axes_1">
   <g id="patch_2">
    <path d="M 63 384.48 
L 453.6 384.48 
L 453.6 51.84 
L 63 51.84 
z
" style="fill: #ffffff"/>
   </g>
   <g id="matplotlib.axis_1">
    <g id="xtick_1">
     <g id="line2d_1">
      <defs>
       <path id="m26a0be9656" d="M 0 0 
L 0 3.5 
" style="stroke: #000000; stroke-width: 0.8"/>
      </defs>
      <g>
       <use xlink:href="#m26a0be9656" x="80.754545" y="384.48" style="stroke: #000000; stroke-width: 0.8"/>
      </g>
     </g>
     <g id="text_1">
      <!-- 0 -->
      <g transform="translate(77.573295 399.078438)scale(0.1 -0.1)">
       <defs>
        <path id="DejaVuSans-30" d="M 2034 4250 
Q 1547 4250 1301 3770 
Q 1056 3291 1056 2328 
Q 1056 1369 1301 889 
Q 1547 409 2034 409 
Q 2525 409 2770 889 
Q 3016 1369 3016 2328 
Q 3016 3291 2770 3770 
Q 2525 4250 2034 4250 
z
M 2034 4750 
Q 2819 4750 3233 4129 
Q 3647 3509 3647 2328 
Q 3647 1150 3233 529 
Q 2819 -91 2034 -91 
Q 1250 -91 836 529 
Q 422 1150 422 2328 
Q 422 3509 836 4129 
Q 1250 4750 2034 4750 
z
" transform="scale(0.015625)"/>
       </defs>
       <use xlink:href="#DejaVuSans-30"/>
      </g>
     </g>
    </g>
    <g id="xtick_2">
     <g id="line2d_2">
      <g>
       <use xlink:href="#m26a0be9656" x="151.767796" y="384.48" style="stroke: #000000; stroke-width: 0.8"/>
      </g>
     </g>
     <g id="text_2">
      <!-- 720 -->
      <g transform="translate(142.224046 399.078438)scale(0.1 -0.1)">
       <defs>
        <path id="DejaVuSans-37" d="M 525 4666 
L 3525 4666 
L 3525 4397 
L 1831 0 
L 1172 0 
L 2766 4134 
L 525 4134 
L 525 4666 
z
" transform="scale(0.015625)"/>
        <path id="DejaVuSans-32" d="M 1228 531 
L 3431 531 
L 3431 0 
L 469 0 
L 469 531 
Q 828 903 1448 1529 
Q 2069 2156 2228 2338 
Q 2531 2678 2651 2914 
Q 2772 3150 2772 3378 
Q 2772 3750 2511 3984 
Q 2250 4219 1831 4219 
Q 1534 4219 1204 4116 
Q 875 4013 500 3803 
L 500 4441 
Q 881 4594 1212 4672 
Q 1544 4750 1819 4750 
Q 2544 4750 2975 4387 
Q 3406 4025 3406 3419 
Q 3406 3131 3298 2873 
Q 3191 2616 2906 2266 
Q 2828 2175 2409 1742 
Q 1991 1309 1228 531 
z
" transform="scale(0.015625)"/>
       </defs>
       <use xlink:href="#DejaVuSans-37"/>
       <use xlink:href="#DejaVuSans-32" x="63.623047"/>
       <use xlink:href="#DejaVuSans-30" x="127.246094"/>
      </g>
     </g>
    </g>
    <g id="xtick_3">
     <g id="line2d_3">
      <g>
       <use xlink:href="#m26a0be9656" x="222.781046" y="384.48" style="stroke: #000000; stroke-width: 0.8"/>
      </g>
     </g>
     <g id="text_3">
      <!-- 1440 -->
      <g transform="translate(210.056046 399.078438)scale(0.1 -0.1)">
       <defs>
        <path id="DejaVuSans-31" d="M 794 531 
L 1825 531 
L 1825 4091 
L 703 3866 
L 703 4441 
L 1819 4666 
L 2450 4666 
L 2450 531 
L 3481 531 
L 3481 0 
L 794 0 
L 794 531 
z
" transform="scale(0.015625)"/>
        <path id="DejaVuSans-34" d="M 2419 4116 
L 825 1625 
L 2419 1625 
L 2419 4116 
z
M 2253 4666 
L 3047 4666 
L 3047 1625 
L 3713 1625 
L 3713 1100 
L 3047 1100 
L 3047 0 
L 2419 0 
L 2419 1100 
L 313 1100 
L 313 1709 
L 2253 4666 
z
" transform="scale(0.015625)"/>
       </defs>
       <use xlink:href="#DejaVuSans-31"/>
       <use xlink:href="#DejaVuSans-34" x="63.623047"/>
       <use xlink:href="#DejaVuSans-34" x="127.246094"/>
       <use xlink:href="#DejaVuSans-30" x="190.869141"/>
      </g>
     </g>
    </g>
    <g id="xtick_4">
     <g id="line2d_4">
      <g>
       <use xlink:href="#m26a0be9656" x="293.794296" y="384.48" style="stroke: #000000; stroke-width: 0.8"/>
      </g>
     </g>
     <g id="text_4">
      <!-- 2160 -->
      <g transform="translate(281.069296 399.078438)scale(0.1 -0.1)">
       <defs>
        <path id="DejaVuSans-36" d="M 2113 2584 
Q 1688 2584 1439 2293 
Q 1191 2003 1191 1497 
Q 1191 994 1439 701 
Q 1688 409 2113 409 
Q 2538 409 2786 701 
Q 3034 994 3034 1497 
Q 3034 2003 2786 2293 
Q 2538 2584 2113 2584 
z
M 3366 4563 
L 3366 3988 
Q 3128 4100 2886 4159 
Q 2644 4219 2406 4219 
Q 1781 4219 1451 3797 
Q 1122 3375 1075 2522 
Q 1259 2794 1537 2939 
Q 1816 3084 2150 3084 
Q 2853 3084 3261 2657 
Q 3669 2231 3669 1497 
Q 3669 778 3244 343 
Q 2819 -91 2113 -91 
Q 1303 -91 875 529 
Q 447 1150 447 2328 
Q 447 3434 972 4092 
Q 1497 4750 2381 4750 
Q 2619 4750 2861 4703 
Q 3103 4656 3366 4563 
z
" transform="scale(0.015625)"/>
       </defs>
       <use xlink:href="#DejaVuSans-32"/>
       <use xlink:href="#DejaVuSans-31" x="63.623047"/>
       <use xlink:href="#DejaVuSans-36" x="127.246094"/>
       <use xlink:href="#DejaVuSans-30" x="190.869141"/>
      </g>
     </g>
    </g>
    <g id="xtick_5">
     <g id="line2d_5">
      <g>
       <use xlink:href="#m26a0be9656" x="364.807547" y="384.48" style="stroke: #000000; stroke-width: 0.8"/>
      </g>
     </g>
     <g id="text_5">
      <!-- 2880 -->
      <g transform="translate(352.082547 399.078438)scale(0.1 -0.1)">
       <defs>
        <path id="DejaVuSans-38" d="M 2034 2216 
Q 1584 2216 1326 1975 
Q 1069 1734 1069 1313 
Q 1069 891 1326 650 
Q 1584 409 2034 409 
Q 2484 409 2743 651 
Q 3003 894 3003 1313 
Q 3003 1734 2745 1975 
Q 2488 2216 2034 2216 
z
M 1403 2484 
Q 997 2584 770 2862 
Q 544 3141 544 3541 
Q 544 4100 942 4425 
Q 1341 4750 2034 4750 
Q 2731 4750 3128 4425 
Q 3525 4100 3525 3541 
Q 3525 3141 3298 2862 
Q 3072 2584 2669 2484 
Q 3125 2378 3379 2068 
Q 3634 1759 3634 1313 
Q 3634 634 3220 271 
Q 2806 -91 2034 -91 
Q 1263 -91 848 271 
Q 434 634 434 1313 
Q 434 1759 690 2068 
Q 947 2378 1403 2484 
z
M 1172 3481 
Q 1172 3119 1398 2916 
Q 1625 2713 2034 2713 
Q 2441 2713 2670 2916 
Q 2900 3119 2900 3481 
Q 2900 3844 2670 4047 
Q 2441 4250 2034 4250 
Q 1625 4250 1398 4047 
Q 1172 3844 1172 3481 
z
" transform="scale(0.015625)"/>
       </defs>
       <use xlink:href="#DejaVuSans-32"/>
       <use xlink:href="#DejaVuSans-38" x="63.623047"/>
       <use xlink:href="#DejaVuSans-38" x="127.246094"/>
       <use xlink:href="#DejaVuSans-30" x="190.869141"/>
      </g>
     </g>
    </g>
    <g id="text_6">
     <!-- time [ms] -->
     <g transform="translate(234.038281 412.756563)scale(0.1 -0.1)">
      <defs>
       <path id="DejaVuSans-74" d="M 1172 4494 
L 1172 3500 
L 2356 3500 
L 2356 3053 
L 1172 3053 
L 1172 1153 
Q 1172 725 1289 603 
Q 1406 481 1766 481 
L 2356 481 
L 2356 0 
L 1766 0 
Q 1100 0 847 248 
Q 594 497 594 1153 
L 594 3053 
L 172 3053 
L 172 3500 
L 594 3500 
L 594 4494 
L 1172 4494 
z
" transform="scale(0.015625)"/>
       <path id="DejaVuSans-69" d="M 603 3500 
L 1178 3500 
L 1178 0 
L 603 0 
L 603 3500 
z
M 603 4863 
L 1178 4863 
L 1178 4134 
L 603 4134 
L 603 4863 
z
" transform="scale(0.015625)"/>
       <path id="DejaVuSans-6d" d="M 3328 2828 
Q 3544 3216 3844 3400 
Q 4144 3584 4550 3584 
Q 5097 3584 5394 3201 
Q 5691 2819 5691 2113 
L 5691 0 
L 5113 0 
L 5113 2094 
Q 5113 2597 4934 2840 
Q 4756 3084 4391 3084 
Q 3944 3084 3684 2787 
Q 3425 2491 3425 1978 
L 3425 0 
L 2847 0 
L 2847 2094 
Q 2847 2600 2669 2842 
Q 2491 3084 2119 3084 
Q 1678 3084 1418 2786 
Q 1159 2488 1159 1978 
L 1159 0 
L 581 0 
L 581 3500 
L 1159 3500 
L 1159 2956 
Q 1356 3278 1631 3431 
Q 1906 3584 2284 3584 
Q 2666 3584 2933 3390 
Q 3200 3197 3328 2828 
z
" transform="scale(0.015625)"/>
       <path id="DejaVuSans-65" d="M 3597 1894 
L 3597 1613 
L 953 1613 
Q 991 1019 1311 708 
Q 1631 397 2203 397 
Q 2534 397 2845 478 
Q 3156 559 3463 722 
L 3463 178 
Q 3153 47 2828 -22 
Q 2503 -91 2169 -91 
Q 1331 -91 842 396 
Q 353 884 353 1716 
Q 353 2575 817 3079 
Q 1281 3584 2069 3584 
Q 2775 3584 3186 3129 
Q 3597 2675 3597 1894 
z
M 3022 2063 
Q 3016 2534 2758 2815 
Q 2500 3097 2075 3097 
Q 1594 3097 1305 2825 
Q 1016 2553 972 2059 
L 3022 2063 
z
" transform="scale(0.015625)"/>
       <path id="DejaVuSans-20" transform="scale(0.015625)"/>
       <path id="DejaVuSans-5b" d="M 550 4863 
L 1875 4863 
L 1875 4416 
L 1125 4416 
L 1125 -397 
L 1875 -397 
L 1875 -844 
L 550 -844 
L 550 4863 
z
" transform="scale(0.015625)"/>
       <path id="DejaVuSans-73" d="M 2834 3397 
L 2834 2853 
Q 2591 2978 2328 3040 
Q 2066 3103 1784 3103 
Q 1356 3103 1142 2972 
Q 928 2841 928 2578 
Q 928 2378 1081 2264 
Q 1234 2150 1697 2047 
L 1894 2003 
Q 2506 1872 2764 1633 
Q 3022 1394 3022 966 
Q 3022 478 2636 193 
Q 2250 -91 1575 -91 
Q 1294 -91 989 -36 
Q 684 19 347 128 
L 347 722 
Q 666 556 975 473 
Q 1284 391 1588 391 
Q 1994 391 2212 530 
Q 2431 669 2431 922 
Q 2431 1156 2273 1281 
Q 2116 1406 1581 1522 
L 1381 1569 
Q 847 1681 609 1914 
Q 372 2147 372 2553 
Q 372 3047 722 3315 
Q 1072 3584 1716 3584 
Q 2034 3584 2315 3537 
Q 2597 3491 2834 3397 
z
" transform="scale(0.015625)"/>
       <path id="DejaVuSans-5d" d="M 1947 4863 
L 1947 -844 
L 622 -844 
L 622 -397 
L 1369 -397 
L 1369 4416 
L 622 4416 
L 622 4863 
L 1947 4863 
z
" transform="scale(0.015625)"/>
      </defs>
      <use xlink:href="#DejaVuSans-74"/>
      <use xlink:href="#DejaVuSans-69" x="39.208984"/>
      <use xlink:href="#DejaVuSans-6d" x="66.992188"/>
      <use xlink:href="#DejaVuSans-65" x="164.404297"/>
      <use xlink:href="#DejaVuSans-20" x="225.927734"/>
      <use xlink:href="#DejaVuSans-5b" x="257.714844"/>
      <use xlink:href="#DejaVuSans-6d" x="296.728516"/>
      <use xlink:href="#DejaVuSans-73" x="394.140625"/>
      <use xlink:href="#DejaVuSans-5d" x="446.240234"/>
     </g>
    </g>
   </g>
   <g id="matplotlib.axis_2">
    <g id="ytick_1">
     <g id="line2d_6">
      <defs>
       <path id="m752f3b4a8a" d="M 0 0 
L -3.5 0 
" style="stroke: #000000; stroke-width: 0.8"/>
      </defs>
      <g>
       <use xlink:href="#m752f3b4a8a" x="63" y="370.057939" style="stroke: #000000; stroke-width: 0.8"/>
      </g>
     </g>
     <g id="text_7">
      <!-- −80 -->
      <g transform="translate(34.895313 373.857158)scale(0.1 -0.1)">
       <defs>
        <path id="DejaVuSans-2212" d="M 678 2272 
L 4684 2272 
L 4684 1741 
L 678 1741 
L 678 2272 
z
" transform="scale(0.015625)"/>
       </defs>
       <use xlink:href="#DejaVuSans-2212"/>
       <use xlink:href="#DejaVuSans-38" x="83.789062"/>
       <use xlink:href="#DejaVuSans-30" x="147.412109"/>
      </g>
     </g>
    </g>
    <g id="ytick_2">
     <g id="line2d_7">
      <g>
       <use xlink:href="#m752f3b4a8a" x="63" y="315.650753" style="stroke: #000000; stroke-width: 0.8"/>
      </g>
     </g>
     <g id="text_8">
      <!-- −60 -->
      <g transform="translate(34.895313 319.449972)scale(0.1 -0.1)">
       <use xlink:href="#DejaVuSans-2212"/>
       <use xlink:href="#DejaVuSans-36" x="83.789062"/>
       <use xlink:href="#DejaVuSans-30" x="147.412109"/>
      </g>
     </g>
    </g>
    <g id="ytick_3">
     <g id="line2d_8">
      <g>
       <use xlink:href="#m752f3b4a8a" x="63" y="261.243567" style="stroke: #000000; stroke-width: 0.8"/>
      </g>
     </g>
     <g id="text_9">
      <!-- −40 -->
      <g transform="translate(34.895313 265.042786)scale(0.1 -0.1)">
       <use xlink:href="#DejaVuSans-2212"/>
       <use xlink:href="#DejaVuSans-34" x="83.789062"/>
       <use xlink:href="#DejaVuSans-30" x="147.412109"/>
      </g>
     </g>
    </g>
    <g id="ytick_4">
     <g id="line2d_9">
      <g>
       <use xlink:href="#m752f3b4a8a" x="63" y="206.836381" style="stroke: #000000; stroke-width: 0.8"/>
      </g>
     </g>
     <g id="text_10">
      <!-- −20 -->
      <g transform="translate(34.895313 210.6356)scale(0.1 -0.1)">
       <use xlink:href="#DejaVuSans-2212"/>
       <use xlink:href="#DejaVuSans-32" x="83.789062"/>
       <use xlink:href="#DejaVuSans-30" x="147.412109"/>
      </g>
     </g>
    </g>
    <g id="ytick_5">
     <g id="line2d_10">
      <g>
       <use xlink:href="#m752f3b4a8a" x="63" y="152.429195" style="stroke: #000000; stroke-width: 0.8"/>
      </g>
     </g>
     <g id="text_11">
      <!-- 0 -->
      <g transform="translate(49.6375 156.228414)scale(0.1 -0.1)">
       <use xlink:href="#DejaVuSans-30"/>
      </g>
     </g>
    </g>
    <g id="ytick_6">
     <g id="line2d_11">
      <g>
       <use xlink:href="#m752f3b4a8a" x="63" y="98.022009" style="stroke: #000000; stroke-width: 0.8"/>
      </g>
     </g>
     <g id="text_12">
      <!-- 20 -->
      <g transform="translate(43.275 101.821228)scale(0.1 -0.1)">
       <use xlink:href="#DejaVuSans-32"/>
       <use xlink:href="#DejaVuSans-30" x="63.623047"/>
      </g>
     </g>
    </g>
    <g id="text_13">
     <!-- Voltage [mV] -->
     <g transform="translate(28.815625 250.6975)rotate(-90)scale(0.1 -0.1)">
      <defs>
       <path id="DejaVuSans-56" d="M 1831 0 
L 50 4666 
L 709 4666 
L 2188 738 
L 3669 4666 
L 4325 4666 
L 2547 0 
L 1831 0 
z
" transform="scale(0.015625)"/>
       <path id="DejaVuSans-6f" d="M 1959 3097 
Q 1497 3097 1228 2736 
Q 959 2375 959 1747 
Q 959 1119 1226 758 
Q 1494 397 1959 397 
Q 2419 397 2687 759 
Q 2956 1122 2956 1747 
Q 2956 2369 2687 2733 
Q 2419 3097 1959 3097 
z
M 1959 3584 
Q 2709 3584 3137 3096 
Q 3566 2609 3566 1747 
Q 3566 888 3137 398 
Q 2709 -91 1959 -91 
Q 1206 -91 779 398 
Q 353 888 353 1747 
Q 353 2609 779 3096 
Q 1206 3584 1959 3584 
z
" transform="scale(0.015625)"/>
       <path id="DejaVuSans-6c" d="M 603 4863 
L 1178 4863 
L 1178 0 
L 603 0 
L 603 4863 
z
" transform="scale(0.015625)"/>
       <path id="DejaVuSans-61" d="M 2194 1759 
Q 1497 1759 1228 1600 
Q 959 1441 959 1056 
Q 959 750 1161 570 
Q 1363 391 1709 391 
Q 2188 391 2477 730 
Q 2766 1069 2766 1631 
L 2766 1759 
L 2194 1759 
z
M 3341 1997 
L 3341 0 
L 2766 0 
L 2766 531 
Q 2569 213 2275 61 
Q 1981 -91 1556 -91 
Q 1019 -91 701 211 
Q 384 513 384 1019 
Q 384 1609 779 1909 
Q 1175 2209 1959 2209 
L 2766 2209 
L 2766 2266 
Q 2766 2663 2505 2880 
Q 2244 3097 1772 3097 
Q 1472 3097 1187 3025 
Q 903 2953 641 2809 
L 641 3341 
Q 956 3463 1253 3523 
Q 1550 3584 1831 3584 
Q 2591 3584 2966 3190 
Q 3341 2797 3341 1997 
z
" transform="scale(0.015625)"/>
       <path id="DejaVuSans-67" d="M 2906 1791 
Q 2906 2416 2648 2759 
Q 2391 3103 1925 3103 
Q 1463 3103 1205 2759 
Q 947 2416 947 1791 
Q 947 1169 1205 825 
Q 1463 481 1925 481 
Q 2391 481 2648 825 
Q 2906 1169 2906 1791 
z
M 3481 434 
Q 3481 -459 3084 -895 
Q 2688 -1331 1869 -1331 
Q 1566 -1331 1297 -1286 
Q 1028 -1241 775 -1147 
L 775 -588 
Q 1028 -725 1275 -790 
Q 1522 -856 1778 -856 
Q 2344 -856 2625 -561 
Q 2906 -266 2906 331 
L 2906 616 
Q 2728 306 2450 153 
Q 2172 0 1784 0 
Q 1141 0 747 490 
Q 353 981 353 1791 
Q 353 2603 747 3093 
Q 1141 3584 1784 3584 
Q 2172 3584 2450 3431 
Q 2728 3278 2906 2969 
L 2906 3500 
L 3481 3500 
L 3481 434 
z
" transform="scale(0.015625)"/>
      </defs>
      <use xlink:href="#DejaVuSans-56"/>
      <use xlink:href="#DejaVuSans-6f" x="60.658203"/>
      <use xlink:href="#DejaVuSans-6c" x="121.839844"/>
      <use xlink:href="#DejaVuSans-74" x="149.623047"/>
      <use xlink:href="#DejaVuSans-61" x="188.832031"/>
      <use xlink:href="#DejaVuSans-67" x="250.111328"/>
      <use xlink:href="#DejaVuSans-65" x="313.587891"/>
      <use xlink:href="#DejaVuSans-20" x="375.111328"/>
      <use xlink:href="#DejaVuSans-5b" x="406.898438"/>
      <use xlink:href="#DejaVuSans-6d" x="445.912109"/>
      <use xlink:href="#DejaVuSans-56" x="543.324219"/>
      <use xlink:href="#DejaVuSans-5d" x="611.732422"/>
     </g>
    </g>
   </g>
   <g id="line2d_12">
    <path d="M 80.754545 329.252549 
L 81.119475 331.836897 
L 81.543582 333.465645 
L 81.967688 334.29527 
L 82.401658 334.687911 
L 82.889874 334.830851 
L 83.57535 334.779128 
L 85.321092 334.336427 
L 87.48601 333.90915 
L 90.075035 333.642777 
L 94.059667 333.480164 
L 100.480448 333.412821 
L 100.633324 349.000581 
L 100.95387 359.15964 
L 101.358251 365.630978 
L 101.72318 368.423615 
L 102.014137 369.270209 
L 102.216328 369.347035 
L 102.408655 369.139548 
L 102.729201 368.392302 
L 103.577415 365.61772 
L 104.36152 363.480428 
L 105.007543 362.323917 
L 105.63384 361.635905 
L 106.29959 361.230223 
L 107.098489 361.012184 
L 108.291906 360.942436 
L 130.069303 360.996734 
L 130.222178 345.303418 
L 130.542724 334.961087 
L 130.937242 328.586456 
L 131.321897 325.52184 
L 131.69669 324.125646 
L 132.03203 323.072448 
L 132.046824 316.459902 
L 132.101071 69.92759 
L 132.175043 280.027617 
L 132.33285 345.034813 
L 132.505452 347.444069 
L 132.579424 347.536281 
L 132.628739 347.469903 
L 132.771751 346.86572 
L 133.072571 344.383403 
L 134.088455 335.525504 
L 134.57174 333.325296 
L 135.010641 332.260777 
L 135.424885 331.782897 
L 135.858855 331.609836 
L 136.406249 331.647778 
L 137.392544 331.984032 
L 139.527873 332.70391 
L 139.932254 332.800394 
L 139.937186 329.252549 
L 140.045678 330.187046 
L 140.464853 332.590342 
L 140.88896 333.854054 
L 141.313067 334.483033 
L 141.7569 334.765031 
L 142.294431 334.835723 
L 143.147576 334.692956 
L 146.954675 333.868959 
L 149.657124 333.616855 
L 153.942577 333.466168 
L 159.663088 333.412821 
L 159.815964 330.30172 
L 160.126647 328.372092 
L 160.531028 327.132855 
L 160.955135 326.490052 
L 161.408831 326.188618 
L 161.951293 326.101561 
L 162.760055 326.221446 
L 167.277287 327.192384 
L 170.167132 327.408538 
L 175.221894 327.532502 
L 188.980712 327.575954 
L 189.251943 327.576071 
L 189.404818 330.666969 
L 189.715501 332.548 
L 190.119882 333.743914 
L 190.543989 334.357422 
L 190.997685 334.637021 
L 191.559873 334.709802 
L 192.472196 334.570653 
L 196.244775 333.841186 
L 199.114894 333.601334 
L 199.119826 329.252549 
L 199.228318 330.187046 
L 199.647494 332.590342 
L 200.0716 333.854054 
L 200.495707 334.483033 
L 200.93954 334.765031 
L 201.477071 334.835723 
L 202.330216 334.692956 
L 206.137316 333.868959 
L 208.839764 333.616855 
L 213.125217 333.466168 
L 218.845729 333.412821 
L 218.998604 327.193217 
L 219.309287 323.355736 
L 219.708737 320.922654 
L 220.147638 319.528087 
L 220.576676 318.295871 
L 220.591471 316.614462 
L 220.625991 220.720412 
L 220.650649 69.589927 
L 220.724621 278.449483 
L 220.882428 342.036342 
L 221.050098 343.87654 
L 221.094481 343.85088 
L 221.119139 343.793063 
L 221.25722 343.030591 
L 221.543246 339.915844 
L 222.638033 326.973622 
L 223.121318 324.135536 
L 223.575014 322.669129 
L 224.028709 321.891304 
L 224.511994 321.48384 
L 225.084045 321.29773 
L 225.86815 321.293721 
L 227.322935 321.552435 
L 229.690044 321.925319 
L 232.431944 322.092857 
L 238.063689 322.168217 
L 248.434583 322.174938 
L 248.587459 328.313569 
L 248.89321 331.909875 
L 249.282797 334.12037 
L 249.682246 335.235553 
L 250.071833 335.731679 
L 250.481145 335.908346 
L 250.994019 335.871106 
L 251.881684 335.542537 
L 254.391805 334.562112 
L 256.250972 334.119486 
L 258.297534 333.830421 
L 258.302466 329.252549 
L 258.410958 330.187046 
L 258.830134 332.590342 
L 259.254241 333.854054 
L 259.678347 334.483033 
L 260.12218 334.765031 
L 260.659711 334.835723 
L 261.512856 334.692956 
L 265.319956 333.868959 
L 268.022404 333.616855 
L 272.307857 333.466168 
L 278.028369 333.412821 
L 278.181244 324.085905 
L 278.491927 318.343588 
L 278.911103 314.434238 
L 279.123156 312.320733 
L 279.137951 304.432282 
L 279.187265 68.717564 
L 279.256306 266.072441 
L 279.399319 339.331707 
L 279.557126 341.369736 
L 279.616304 341.247871 
L 279.759317 340.261993 
L 280.055205 336.363954 
L 281.110541 321.407721 
L 281.583963 318.070435 
L 282.047521 316.258958 
L 282.668887 314.810053 
L 282.806969 314.181827 
L 282.821763 313.077743 
L 282.84642 255.136439 
L 282.880941 72.237586 
L 282.949981 260.799216 
L 283.092994 338.883784 
L 283.255733 341.253758 
L 283.290253 341.250204 
L 283.324774 341.174464 
L 283.457923 340.37624 
L 283.734086 337.075028 
L 284.838737 322.645599 
L 285.312158 319.665383 
L 285.770785 318.075332 
L 286.244207 317.186437 
L 286.781738 316.641768 
L 287.822279 315.721525 
L 287.866663 315.340511 
L 287.881457 309.058475 
L 287.935703 76.614538 
L 288.009675 274.213054 
L 288.167483 339.122324 
L 288.330221 340.872485 
L 288.384468 340.815243 
L 288.394331 340.787784 
L 288.52748 340.012799 
L 288.808575 336.744245 
L 289.849116 323.68539 
L 290.327469 320.691146 
L 290.786096 319.099224 
L 291.259518 318.201853 
L 291.782254 317.671517 
L 292.423346 317.342294 
L 293.335669 317.140879 
L 294.795386 317.068722 
L 307.617223 317.111181 
L 307.770099 326.265145 
L 308.070919 331.440248 
L 308.455574 334.577648 
L 308.84516 336.116624 
L 309.219953 336.789075 
L 309.584882 337.025021 
L 309.994194 337.020444 
L 310.605697 336.761425 
L 314.378276 334.805217 
L 316.124019 334.316504 
L 317.480174 334.063012 
L 317.485106 329.252549 
L 317.593598 330.187046 
L 318.012774 332.590342 
L 318.436881 333.854054 
L 318.860988 334.483033 
L 319.30482 334.765031 
L 319.842351 334.835723 
L 320.695497 334.692956 
L 324.502596 333.868959 
L 327.205044 333.616855 
L 331.490497 333.466168 
L 337.211009 333.412821 
L 337.363884 320.978372 
L 337.674567 313.283274 
L 338.034565 306.007668 
L 338.064154 222.240404 
L 338.088811 67.913467 
L 338.162784 274.988853 
L 338.315659 337.999376 
L 338.424152 339.068568 
L 338.463604 339.004449 
L 338.581959 338.233421 
L 338.838396 334.776797 
L 340.184689 313.963127 
L 340.677836 310.754916 
L 341.077286 308.218574 
L 341.097012 306.71443 
L 341.1266 227.010675 
L 341.151258 71.324073 
L 341.22523 269.409517 
L 341.373174 337.715254 
L 341.506324 339.152618 
L 341.52605 339.139806 
L 341.609885 338.809934 
L 341.802213 336.903559 
L 342.216457 330.000743 
L 342.921658 319.137845 
L 343.404942 314.927398 
L 343.878364 312.605773 
L 344.56877 309.842649 
L 344.583565 305.211786 
L 344.627948 90.288658 
L 344.63288 76.450084 
L 344.692057 220.403887 
L 344.83507 336.027707 
L 344.992877 338.728331 
L 345.027398 338.715318 
L 345.056987 338.642827 
L 345.185205 337.827292 
L 345.451505 334.398288 
L 346.585744 318.221521 
L 347.054234 315.113901 
L 347.527656 313.35822 
L 348.10957 312.075279 
L 348.405459 311.242437 
L 348.454773 310.390103 
L 348.469568 296.548595 
L 348.518883 79.320051 
L 348.587923 263.305422 
L 348.735867 336.327989 
L 348.869017 338.355009 
L 348.888743 338.336024 
L 348.982441 337.932239 
L 349.194495 335.866382 
L 349.687642 328.215434 
L 350.304077 320.101513 
L 350.787361 316.452465 
L 351.255852 314.476979 
L 351.753931 313.291109 
L 352.661322 311.420099 
L 352.676117 310.801907 
L 352.690911 295.888514 
L 352.740226 81.20029 
L 352.809266 261.546087 
L 352.957211 335.677578 
L 353.119949 338.383239 
L 353.174196 338.27742 
L 353.312277 337.307475 
L 353.613097 333.283557 
L 354.55994 320.013463 
L 355.038293 316.553989 
L 355.506784 314.664679 
L 356.004863 313.534923 
L 356.685406 312.583822 
L 357.015815 311.968975 
L 357.094719 311.425414 
L 357.109513 307.286264 
L 357.148965 150.82567 
L 357.163759 82.088446 
L 357.242663 272.821377 
L 357.410333 336.340686 
L 357.558278 338.114099 
L 357.56814 338.10812 
L 357.642113 337.855391 
L 357.824577 336.199674 
L 358.253616 329.714007 
L 358.914433 320.769122 
L 359.397718 317.026359 
L 359.861277 315.013486 
L 360.349493 313.822036 
L 360.94127 312.967983 
L 361.537978 312.088184 
L 361.631676 311.528484 
L 361.646471 308.184765 
L 361.685923 163.340851 
L 361.700717 84.113635 
L 361.779621 269.991694 
L 361.942359 335.627216 
L 362.100167 337.866533 
L 362.105098 337.866262 
L 362.164276 337.726254 
L 362.31222 336.611935 
L 362.642629 332.053845 
L 363.471117 320.612278 
L 363.954402 316.978622 
L 364.422892 315.009903 
L 364.911108 313.857072 
L 365.507816 313.021704 
L 366.129182 312.14048 
L 366.227812 311.541538 
L 366.242606 307.090752 
L 366.282058 150.850846 
L 366.296852 84.383707 
L 366.375756 271.313269 
L 366.543426 335.571011 
L 366.706165 337.749926 
L 366.765343 337.617332 
L 366.799863 337.445048 
L 366.937944 345.476318 
L 367.12534 346.494206 
L 367.219038 346.443474 
L 367.22397 346.435382 
L 367.401503 345.909429 
L 367.95876 343.264027 
L 368.639303 340.573719 
L 369.231081 339.104227 
L 369.886967 338.059724 
L 370.710523 337.171436 
L 371.795448 336.336364 
L 373.151604 335.576604 
L 374.759265 334.934973 
L 376.662814 334.420961 
L 376.667746 329.252549 
L 376.776238 330.187046 
L 377.195414 332.590342 
L 377.619521 333.854054 
L 378.043628 334.483033 
L 378.48746 334.765031 
L 379.024991 334.835723 
L 379.878137 334.692956 
L 383.685236 333.868959 
L 386.387685 333.616855 
L 390.673137 333.466168 
L 396.393649 333.412821 
L 396.546525 317.868236 
L 396.86707 307.776249 
L 397.024878 302.499577 
L 397.039672 279.169357 
L 397.079124 66.96 
L 397.148165 258.815128 
L 397.286246 335.420998 
L 397.389807 336.784195 
L 397.429259 336.695398 
L 397.557477 335.652483 
L 397.83364 331.238969 
L 399.076372 308.972723 
L 399.687875 301.454351 
L 399.702669 291.161096 
L 399.747052 70.596578 
L 399.816093 258.841322 
L 399.959106 335.818303 
L 400.07253 337.0709 
L 400.10705 337.016535 
L 400.220474 336.295687 
L 400.462116 333.015196 
L 401.91197 309.97186 
L 402.651691 303.720086 
L 402.666486 293.500033 
L 402.710869 74.31104 
L 402.77991 253.987445 
L 402.922923 335.098745 
L 403.051141 336.671072 
L 403.070867 336.652712 
L 403.159633 336.25554 
L 403.356893 334.093649 
L 403.790862 326.219039 
L 404.45168 315.436991 
L 404.939896 310.891472 
L 405.462633 308.027618 
L 405.797973 306.014572 
L 405.832493 304.904352 
L 405.847288 286.690495 
L 405.891671 77.345532 
L 405.960712 255.757427 
L 406.103724 334.416838 
L 406.231943 336.371555 
L 406.2566 336.338911 
L 406.35523 335.811345 
L 406.577146 333.180129 
L 407.213307 321.836664 
L 407.755769 314.61513 
L 408.239053 310.924307 
L 408.766721 308.554782 
L 409.131651 306.756768 
L 409.171102 305.300924 
L 409.19576 246.521292 
L 409.23028 80.062543 
L 409.299321 257.399367 
L 409.447265 334.067168 
L 409.590278 336.31123 
L 409.605072 336.29751 
L 409.683976 335.943213 
L 409.881235 333.794554 
L 410.359588 325.43806 
L 410.976022 316.220955 
L 411.459307 312.080733 
L 411.952455 309.657266 
L 412.593547 306.793755 
L 412.613272 304.768654 
L 412.647793 197.335875 
L 412.667519 82.021385 
L 412.746422 269.998765 
L 412.909161 334.423985 
L 413.037379 336.04679 
L 413.062037 336.021125 
L 413.155735 335.529764 
L 413.377651 332.882538 
L 414.797916 312.993107 
L 415.281201 310.373048 
L 416.104757 306.750962 
L 416.119552 301.306346 
L 416.168866 84.078545 
L 416.242839 259.610795 
L 416.395714 333.272293 
L 416.54859 335.839409 
L 416.558453 335.83645 
L 416.622562 335.627736 
L 416.785301 334.131522 
L 417.15023 328.261083 
L 417.894883 316.763587 
L 418.378168 312.603751 
L 418.861452 310.223895 
L 419.640625 306.978863 
L 419.65542 304.309855 
L 419.68994 192.823502 
L 419.709666 84.361738 
L 419.78857 269.047494 
L 419.951308 333.518605 
L 420.099253 335.58887 
L 420.109116 335.582537 
L 420.178156 335.330642 
L 420.350758 333.655389 
L 420.755139 327.01206 
L 421.435682 316.786671 
L 421.918967 312.668956 
L 422.402252 310.312585 
L 423.201151 307.045667 
L 423.215945 304.094269 
L 423.250466 191.004789 
L 423.270191 85.155975 
L 423.349095 268.798677 
L 423.516765 333.355587 
L 423.66471 335.418926 
L 423.679504 335.408952 
L 423.753476 335.115688 
L 423.935941 333.262826 
L 424.384705 325.776805 
L 425.015934 316.609754 
L 425.499218 312.599168 
L 425.982503 310.302284 
L 426.135379 324.907315 
L 426.416473 331.944265 
L 426.776471 335.953691 
L 427.146331 337.858496 
L 427.496466 338.643981 
L 427.821944 338.896223 
L 428.167147 338.884016 
L 428.655363 338.614633 
L 429.750151 337.680603 
L 431.362743 336.40576 
L 432.778077 335.577313 
L 434.331491 334.928951 
L 435.845455 334.488336 
L 435.845455 334.488336 
" clip-path="url(#p6d9a6d0db5)" style="fill: none; stroke: #ff0000; stroke-width: 1.5; stroke-linecap: square"/>
   </g>
   <g id="patch_3">
    <path d="M 63 384.48 
L 63 51.84 
" style="fill: none; stroke: #000000; stroke-width: 0.8; stroke-linejoin: miter; stroke-linecap: square"/>
   </g>
   <g id="patch_4">
    <path d="M 453.6 384.48 
L 453.6 51.84 
" style="fill: none; stroke: #000000; stroke-width: 0.8; stroke-linejoin: miter; stroke-linecap: square"/>
   </g>
   <g id="patch_5">
    <path d="M 63 384.48 
L 453.6 384.48 
" style="fill: none; stroke: #000000; stroke-width: 0.8; stroke-linejoin: miter; stroke-linecap: square"/>
   </g>
   <g id="patch_6">
    <path d="M 63 51.84 
L 453.6 51.84 
" style="fill: none; stroke: #000000; stroke-width: 0.8; stroke-linejoin: miter; stroke-linecap: square"/>
   </g>
   <g id="legend_1">
    <g id="patch_7">
     <path d="M 383.460938 379.48 
L 446.6 379.48 
Q 448.6 379.48 448.6 377.48 
L 448.6 363.801875 
Q 448.6 361.801875 446.6 361.801875 
L 383.460938 361.801875 
Q 381.460938 361.801875 381.460938 363.801875 
L 381.460938 377.48 
Q 381.460938 379.48 383.460938 379.48 
z
" style="fill: #ffffff; opacity: 0.8; stroke: #cccccc; stroke-linejoin: miter"/>
    </g>
    <g id="line2d_13">
     <path d="M 385.460938 369.900312 
L 395.460938 369.900312 
L 405.460938 369.900312 
" style="fill: none; stroke: #ff0000; stroke-width: 1.5; stroke-linecap: square"/>
    </g>
    <g id="text_14">
     <!-- model -->
     <g transform="translate(413.460938 373.400312)scale(0.1 -0.1)">
      <defs>
       <path id="DejaVuSans-64" d="M 2906 2969 
L 2906 4863 
L 3481 4863 
L 3481 0 
L 2906 0 
L 2906 525 
Q 2725 213 2448 61 
Q 2172 -91 1784 -91 
Q 1150 -91 751 415 
Q 353 922 353 1747 
Q 353 2572 751 3078 
Q 1150 3584 1784 3584 
Q 2172 3584 2448 3432 
Q 2725 3281 2906 2969 
z
M 947 1747 
Q 947 1113 1208 752 
Q 1469 391 1925 391 
Q 2381 391 2643 752 
Q 2906 1113 2906 1747 
Q 2906 2381 2643 2742 
Q 2381 3103 1925 3103 
Q 1469 3103 1208 2742 
Q 947 2381 947 1747 
z
" transform="scale(0.015625)"/>
      </defs>
      <use xlink:href="#DejaVuSans-6d"/>
      <use xlink:href="#DejaVuSans-6f" x="97.412109"/>
      <use xlink:href="#DejaVuSans-64" x="158.59375"/>
      <use xlink:href="#DejaVuSans-65" x="222.070312"/>
      <use xlink:href="#DejaVuSans-6c" x="283.59375"/>
     </g>
    </g>
   </g>
  </g>
 </g>
 <defs>
  <clipPath id="p6d9a6d0db5">
   <rect x="63" y="51.84" width="390.6" height="332.64"/>
  </clipPath>
 </defs>
</svg>
