<?xml version="1.0" encoding="utf-8" standalone="no"?>
<!DOCTYPE svg PUBLIC "-//W3C//DTD SVG 1.1//EN"
  "http://www.w3.org/Graphics/SVG/1.1/DTD/svg11.dtd">
<svg xmlns:xlink="http://www.w3.org/1999/xlink" width="504pt" height="432pt" viewBox="0 0 504 432" xmlns="http://www.w3.org/2000/svg" version="1.1">
 <metadata>
  <rdf:RDF xmlns:dc="http://purl.org/dc/elements/1.1/" xmlns:cc="http://creativecommons.org/ns#" xmlns:rdf="http://www.w3.org/1999/02/22-rdf-syntax-ns#">
   <cc:Work>
    <dc:type rdf:resource="http://purl.org/dc/dcmitype/StillImage"/>
    <dc:date>2023-08-16T16:17:17.646822</dc:date>
    <dc:format>image/svg+xml</dc:format>
    <dc:creator>
     <cc:Agent>
      <dc:title>Matplotlib v3.5.3, https://matplotlib.org/</dc:title>
     </cc:Agent>
    </dc:creator>
   </cc:Work>
  </rdf:RDF>
 </metadata>
 <defs>
  <style type="text/css">*{stroke-linejoin: round; stroke-linecap: butt}</style>
 </defs>
 <g id="figure_1">
  <g id="patch_1">
   <path d="M 0 432 
L 504 432 
L 504 0 
L 0 0 
z
" style="fill: #ffffff"/>
  </g>
  <g id="axes_1">
   <g id="patch_2">
    <path d="M 63 384.48 
L 453.6 384.48 
L 453.6 51.84 
L 63 51.84 
z
" style="fill: #ffffff"/>
   </g>
   <g id="matplotlib.axis_1">
    <g id="xtick_1">
     <g id="line2d_1">
      <defs>
       <path id="m15205f399e" d="M 0 0 
L 0 3.5 
" style="stroke: #000000; stroke-width: 0.8"/>
      </defs>
      <g>
       <use xlink:href="#m15205f399e" x="80.754545" y="384.48" style="stroke: #000000; stroke-width: 0.8"/>
      </g>
     </g>
     <g id="text_1">
      <!-- 0 -->
      <g transform="translate(77.573295 399.078438)scale(0.1 -0.1)">
       <defs>
        <path id="DejaVuSans-30" d="M 2034 4250 
Q 1547 4250 1301 3770 
Q 1056 3291 1056 2328 
Q 1056 1369 1301 889 
Q 1547 409 2034 409 
Q 2525 409 2770 889 
Q 3016 1369 3016 2328 
Q 3016 3291 2770 3770 
Q 2525 4250 2034 4250 
z
M 2034 4750 
Q 2819 4750 3233 4129 
Q 3647 3509 3647 2328 
Q 3647 1150 3233 529 
Q 2819 -91 2034 -91 
Q 1250 -91 836 529 
Q 422 1150 422 2328 
Q 422 3509 836 4129 
Q 1250 4750 2034 4750 
z
" transform="scale(0.015625)"/>
       </defs>
       <use xlink:href="#DejaVuSans-30"/>
      </g>
     </g>
    </g>
    <g id="xtick_2">
     <g id="line2d_2">
      <g>
       <use xlink:href="#m15205f399e" x="151.767796" y="384.48" style="stroke: #000000; stroke-width: 0.8"/>
      </g>
     </g>
     <g id="text_2">
      <!-- 720 -->
      <g transform="translate(142.224046 399.078438)scale(0.1 -0.1)">
       <defs>
        <path id="DejaVuSans-37" d="M 525 4666 
L 3525 4666 
L 3525 4397 
L 1831 0 
L 1172 0 
L 2766 4134 
L 525 4134 
L 525 4666 
z
" transform="scale(0.015625)"/>
        <path id="DejaVuSans-32" d="M 1228 531 
L 3431 531 
L 3431 0 
L 469 0 
L 469 531 
Q 828 903 1448 1529 
Q 2069 2156 2228 2338 
Q 2531 2678 2651 2914 
Q 2772 3150 2772 3378 
Q 2772 3750 2511 3984 
Q 2250 4219 1831 4219 
Q 1534 4219 1204 4116 
Q 875 4013 500 3803 
L 500 4441 
Q 881 4594 1212 4672 
Q 1544 4750 1819 4750 
Q 2544 4750 2975 4387 
Q 3406 4025 3406 3419 
Q 3406 3131 3298 2873 
Q 3191 2616 2906 2266 
Q 2828 2175 2409 1742 
Q 1991 1309 1228 531 
z
" transform="scale(0.015625)"/>
       </defs>
       <use xlink:href="#DejaVuSans-37"/>
       <use xlink:href="#DejaVuSans-32" x="63.623047"/>
       <use xlink:href="#DejaVuSans-30" x="127.246094"/>
      </g>
     </g>
    </g>
    <g id="xtick_3">
     <g id="line2d_3">
      <g>
       <use xlink:href="#m15205f399e" x="222.781046" y="384.48" style="stroke: #000000; stroke-width: 0.8"/>
      </g>
     </g>
     <g id="text_3">
      <!-- 1440 -->
      <g transform="translate(210.056046 399.078438)scale(0.1 -0.1)">
       <defs>
        <path id="DejaVuSans-31" d="M 794 531 
L 1825 531 
L 1825 4091 
L 703 3866 
L 703 4441 
L 1819 4666 
L 2450 4666 
L 2450 531 
L 3481 531 
L 3481 0 
L 794 0 
L 794 531 
z
" transform="scale(0.015625)"/>
        <path id="DejaVuSans-34" d="M 2419 4116 
L 825 1625 
L 2419 1625 
L 2419 4116 
z
M 2253 4666 
L 3047 4666 
L 3047 1625 
L 3713 1625 
L 3713 1100 
L 3047 1100 
L 3047 0 
L 2419 0 
L 2419 1100 
L 313 1100 
L 313 1709 
L 2253 4666 
z
" transform="scale(0.015625)"/>
       </defs>
       <use xlink:href="#DejaVuSans-31"/>
       <use xlink:href="#DejaVuSans-34" x="63.623047"/>
       <use xlink:href="#DejaVuSans-34" x="127.246094"/>
       <use xlink:href="#DejaVuSans-30" x="190.869141"/>
      </g>
     </g>
    </g>
    <g id="xtick_4">
     <g id="line2d_4">
      <g>
       <use xlink:href="#m15205f399e" x="293.794296" y="384.48" style="stroke: #000000; stroke-width: 0.8"/>
      </g>
     </g>
     <g id="text_4">
      <!-- 2160 -->
      <g transform="translate(281.069296 399.078438)scale(0.1 -0.1)">
       <defs>
        <path id="DejaVuSans-36" d="M 2113 2584 
Q 1688 2584 1439 2293 
Q 1191 2003 1191 1497 
Q 1191 994 1439 701 
Q 1688 409 2113 409 
Q 2538 409 2786 701 
Q 3034 994 3034 1497 
Q 3034 2003 2786 2293 
Q 2538 2584 2113 2584 
z
M 3366 4563 
L 3366 3988 
Q 3128 4100 2886 4159 
Q 2644 4219 2406 4219 
Q 1781 4219 1451 3797 
Q 1122 3375 1075 2522 
Q 1259 2794 1537 2939 
Q 1816 3084 2150 3084 
Q 2853 3084 3261 2657 
Q 3669 2231 3669 1497 
Q 3669 778 3244 343 
Q 2819 -91 2113 -91 
Q 1303 -91 875 529 
Q 447 1150 447 2328 
Q 447 3434 972 4092 
Q 1497 4750 2381 4750 
Q 2619 4750 2861 4703 
Q 3103 4656 3366 4563 
z
" transform="scale(0.015625)"/>
       </defs>
       <use xlink:href="#DejaVuSans-32"/>
       <use xlink:href="#DejaVuSans-31" x="63.623047"/>
       <use xlink:href="#DejaVuSans-36" x="127.246094"/>
       <use xlink:href="#DejaVuSans-30" x="190.869141"/>
      </g>
     </g>
    </g>
    <g id="xtick_5">
     <g id="line2d_5">
      <g>
       <use xlink:href="#m15205f399e" x="364.807547" y="384.48" style="stroke: #000000; stroke-width: 0.8"/>
      </g>
     </g>
     <g id="text_5">
      <!-- 2880 -->
      <g transform="translate(352.082547 399.078438)scale(0.1 -0.1)">
       <defs>
        <path id="DejaVuSans-38" d="M 2034 2216 
Q 1584 2216 1326 1975 
Q 1069 1734 1069 1313 
Q 1069 891 1326 650 
Q 1584 409 2034 409 
Q 2484 409 2743 651 
Q 3003 894 3003 1313 
Q 3003 1734 2745 1975 
Q 2488 2216 2034 2216 
z
M 1403 2484 
Q 997 2584 770 2862 
Q 544 3141 544 3541 
Q 544 4100 942 4425 
Q 1341 4750 2034 4750 
Q 2731 4750 3128 4425 
Q 3525 4100 3525 3541 
Q 3525 3141 3298 2862 
Q 3072 2584 2669 2484 
Q 3125 2378 3379 2068 
Q 3634 1759 3634 1313 
Q 3634 634 3220 271 
Q 2806 -91 2034 -91 
Q 1263 -91 848 271 
Q 434 634 434 1313 
Q 434 1759 690 2068 
Q 947 2378 1403 2484 
z
M 1172 3481 
Q 1172 3119 1398 2916 
Q 1625 2713 2034 2713 
Q 2441 2713 2670 2916 
Q 2900 3119 2900 3481 
Q 2900 3844 2670 4047 
Q 2441 4250 2034 4250 
Q 1625 4250 1398 4047 
Q 1172 3844 1172 3481 
z
" transform="scale(0.015625)"/>
       </defs>
       <use xlink:href="#DejaVuSans-32"/>
       <use xlink:href="#DejaVuSans-38" x="63.623047"/>
       <use xlink:href="#DejaVuSans-38" x="127.246094"/>
       <use xlink:href="#DejaVuSans-30" x="190.869141"/>
      </g>
     </g>
    </g>
    <g id="text_6">
     <!-- time [ms] -->
     <g transform="translate(234.038281 412.756563)scale(0.1 -0.1)">
      <defs>
       <path id="DejaVuSans-74" d="M 1172 4494 
L 1172 3500 
L 2356 3500 
L 2356 3053 
L 1172 3053 
L 1172 1153 
Q 1172 725 1289 603 
Q 1406 481 1766 481 
L 2356 481 
L 2356 0 
L 1766 0 
Q 1100 0 847 248 
Q 594 497 594 1153 
L 594 3053 
L 172 3053 
L 172 3500 
L 594 3500 
L 594 4494 
L 1172 4494 
z
" transform="scale(0.015625)"/>
       <path id="DejaVuSans-69" d="M 603 3500 
L 1178 3500 
L 1178 0 
L 603 0 
L 603 3500 
z
M 603 4863 
L 1178 4863 
L 1178 4134 
L 603 4134 
L 603 4863 
z
" transform="scale(0.015625)"/>
       <path id="DejaVuSans-6d" d="M 3328 2828 
Q 3544 3216 3844 3400 
Q 4144 3584 4550 3584 
Q 5097 3584 5394 3201 
Q 5691 2819 5691 2113 
L 5691 0 
L 5113 0 
L 5113 2094 
Q 5113 2597 4934 2840 
Q 4756 3084 4391 3084 
Q 3944 3084 3684 2787 
Q 3425 2491 3425 1978 
L 3425 0 
L 2847 0 
L 2847 2094 
Q 2847 2600 2669 2842 
Q 2491 3084 2119 3084 
Q 1678 3084 1418 2786 
Q 1159 2488 1159 1978 
L 1159 0 
L 581 0 
L 581 3500 
L 1159 3500 
L 1159 2956 
Q 1356 3278 1631 3431 
Q 1906 3584 2284 3584 
Q 2666 3584 2933 3390 
Q 3200 3197 3328 2828 
z
" transform="scale(0.015625)"/>
       <path id="DejaVuSans-65" d="M 3597 1894 
L 3597 1613 
L 953 1613 
Q 991 1019 1311 708 
Q 1631 397 2203 397 
Q 2534 397 2845 478 
Q 3156 559 3463 722 
L 3463 178 
Q 3153 47 2828 -22 
Q 2503 -91 2169 -91 
Q 1331 -91 842 396 
Q 353 884 353 1716 
Q 353 2575 817 3079 
Q 1281 3584 2069 3584 
Q 2775 3584 3186 3129 
Q 3597 2675 3597 1894 
z
M 3022 2063 
Q 3016 2534 2758 2815 
Q 2500 3097 2075 3097 
Q 1594 3097 1305 2825 
Q 1016 2553 972 2059 
L 3022 2063 
z
" transform="scale(0.015625)"/>
       <path id="DejaVuSans-20" transform="scale(0.015625)"/>
       <path id="DejaVuSans-5b" d="M 550 4863 
L 1875 4863 
L 1875 4416 
L 1125 4416 
L 1125 -397 
L 1875 -397 
L 1875 -844 
L 550 -844 
L 550 4863 
z
" transform="scale(0.015625)"/>
       <path id="DejaVuSans-73" d="M 2834 3397 
L 2834 2853 
Q 2591 2978 2328 3040 
Q 2066 3103 1784 3103 
Q 1356 3103 1142 2972 
Q 928 2841 928 2578 
Q 928 2378 1081 2264 
Q 1234 2150 1697 2047 
L 1894 2003 
Q 2506 1872 2764 1633 
Q 3022 1394 3022 966 
Q 3022 478 2636 193 
Q 2250 -91 1575 -91 
Q 1294 -91 989 -36 
Q 684 19 347 128 
L 347 722 
Q 666 556 975 473 
Q 1284 391 1588 391 
Q 1994 391 2212 530 
Q 2431 669 2431 922 
Q 2431 1156 2273 1281 
Q 2116 1406 1581 1522 
L 1381 1569 
Q 847 1681 609 1914 
Q 372 2147 372 2553 
Q 372 3047 722 3315 
Q 1072 3584 1716 3584 
Q 2034 3584 2315 3537 
Q 2597 3491 2834 3397 
z
" transform="scale(0.015625)"/>
       <path id="DejaVuSans-5d" d="M 1947 4863 
L 1947 -844 
L 622 -844 
L 622 -397 
L 1369 -397 
L 1369 4416 
L 622 4416 
L 622 4863 
L 1947 4863 
z
" transform="scale(0.015625)"/>
      </defs>
      <use xlink:href="#DejaVuSans-74"/>
      <use xlink:href="#DejaVuSans-69" x="39.208984"/>
      <use xlink:href="#DejaVuSans-6d" x="66.992188"/>
      <use xlink:href="#DejaVuSans-65" x="164.404297"/>
      <use xlink:href="#DejaVuSans-20" x="225.927734"/>
      <use xlink:href="#DejaVuSans-5b" x="257.714844"/>
      <use xlink:href="#DejaVuSans-6d" x="296.728516"/>
      <use xlink:href="#DejaVuSans-73" x="394.140625"/>
      <use xlink:href="#DejaVuSans-5d" x="446.240234"/>
     </g>
    </g>
   </g>
   <g id="matplotlib.axis_2">
    <g id="ytick_1">
     <g id="line2d_6">
      <defs>
       <path id="m7fc1db8a43" d="M 0 0 
L -3.5 0 
" style="stroke: #000000; stroke-width: 0.8"/>
      </defs>
      <g>
       <use xlink:href="#m7fc1db8a43" x="63" y="330.255398" style="stroke: #000000; stroke-width: 0.8"/>
      </g>
     </g>
     <g id="text_7">
      <!-- −70 -->
      <g transform="translate(34.895313 334.054617)scale(0.1 -0.1)">
       <defs>
        <path id="DejaVuSans-2212" d="M 678 2272 
L 4684 2272 
L 4684 1741 
L 678 1741 
L 678 2272 
z
" transform="scale(0.015625)"/>
       </defs>
       <use xlink:href="#DejaVuSans-2212"/>
       <use xlink:href="#DejaVuSans-37" x="83.789062"/>
       <use xlink:href="#DejaVuSans-30" x="147.412109"/>
      </g>
     </g>
    </g>
    <g id="ytick_2">
     <g id="line2d_7">
      <g>
       <use xlink:href="#m7fc1db8a43" x="63" y="273.769422" style="stroke: #000000; stroke-width: 0.8"/>
      </g>
     </g>
     <g id="text_8">
      <!-- −60 -->
      <g transform="translate(34.895313 277.568641)scale(0.1 -0.1)">
       <use xlink:href="#DejaVuSans-2212"/>
       <use xlink:href="#DejaVuSans-36" x="83.789062"/>
       <use xlink:href="#DejaVuSans-30" x="147.412109"/>
      </g>
     </g>
    </g>
    <g id="ytick_3">
     <g id="line2d_8">
      <g>
       <use xlink:href="#m7fc1db8a43" x="63" y="217.283446" style="stroke: #000000; stroke-width: 0.8"/>
      </g>
     </g>
     <g id="text_9">
      <!-- −50 -->
      <g transform="translate(34.895313 221.082665)scale(0.1 -0.1)">
       <defs>
        <path id="DejaVuSans-35" d="M 691 4666 
L 3169 4666 
L 3169 4134 
L 1269 4134 
L 1269 2991 
Q 1406 3038 1543 3061 
Q 1681 3084 1819 3084 
Q 2600 3084 3056 2656 
Q 3513 2228 3513 1497 
Q 3513 744 3044 326 
Q 2575 -91 1722 -91 
Q 1428 -91 1123 -41 
Q 819 9 494 109 
L 494 744 
Q 775 591 1075 516 
Q 1375 441 1709 441 
Q 2250 441 2565 725 
Q 2881 1009 2881 1497 
Q 2881 1984 2565 2268 
Q 2250 2553 1709 2553 
Q 1456 2553 1204 2497 
Q 953 2441 691 2322 
L 691 4666 
z
" transform="scale(0.015625)"/>
       </defs>
       <use xlink:href="#DejaVuSans-2212"/>
       <use xlink:href="#DejaVuSans-35" x="83.789062"/>
       <use xlink:href="#DejaVuSans-30" x="147.412109"/>
      </g>
     </g>
    </g>
    <g id="ytick_4">
     <g id="line2d_9">
      <g>
       <use xlink:href="#m7fc1db8a43" x="63" y="160.79747" style="stroke: #000000; stroke-width: 0.8"/>
      </g>
     </g>
     <g id="text_10">
      <!-- −40 -->
      <g transform="translate(34.895313 164.596689)scale(0.1 -0.1)">
       <use xlink:href="#DejaVuSans-2212"/>
       <use xlink:href="#DejaVuSans-34" x="83.789062"/>
       <use xlink:href="#DejaVuSans-30" x="147.412109"/>
      </g>
     </g>
    </g>
    <g id="ytick_5">
     <g id="line2d_10">
      <g>
       <use xlink:href="#m7fc1db8a43" x="63" y="104.311494" style="stroke: #000000; stroke-width: 0.8"/>
      </g>
     </g>
     <g id="text_11">
      <!-- −30 -->
      <g transform="translate(34.895313 108.110713)scale(0.1 -0.1)">
       <defs>
        <path id="DejaVuSans-33" d="M 2597 2516 
Q 3050 2419 3304 2112 
Q 3559 1806 3559 1356 
Q 3559 666 3084 287 
Q 2609 -91 1734 -91 
Q 1441 -91 1130 -33 
Q 819 25 488 141 
L 488 750 
Q 750 597 1062 519 
Q 1375 441 1716 441 
Q 2309 441 2620 675 
Q 2931 909 2931 1356 
Q 2931 1769 2642 2001 
Q 2353 2234 1838 2234 
L 1294 2234 
L 1294 2753 
L 1863 2753 
Q 2328 2753 2575 2939 
Q 2822 3125 2822 3475 
Q 2822 3834 2567 4026 
Q 2313 4219 1838 4219 
Q 1578 4219 1281 4162 
Q 984 4106 628 3988 
L 628 4550 
Q 988 4650 1302 4700 
Q 1616 4750 1894 4750 
Q 2613 4750 3031 4423 
Q 3450 4097 3450 3541 
Q 3450 3153 3228 2886 
Q 3006 2619 2597 2516 
z
" transform="scale(0.015625)"/>
       </defs>
       <use xlink:href="#DejaVuSans-2212"/>
       <use xlink:href="#DejaVuSans-33" x="83.789062"/>
       <use xlink:href="#DejaVuSans-30" x="147.412109"/>
      </g>
     </g>
    </g>
    <g id="text_12">
     <!-- Voltage [mV] -->
     <g transform="translate(28.815625 250.6975)rotate(-90)scale(0.1 -0.1)">
      <defs>
       <path id="DejaVuSans-56" d="M 1831 0 
L 50 4666 
L 709 4666 
L 2188 738 
L 3669 4666 
L 4325 4666 
L 2547 0 
L 1831 0 
z
" transform="scale(0.015625)"/>
       <path id="DejaVuSans-6f" d="M 1959 3097 
Q 1497 3097 1228 2736 
Q 959 2375 959 1747 
Q 959 1119 1226 758 
Q 1494 397 1959 397 
Q 2419 397 2687 759 
Q 2956 1122 2956 1747 
Q 2956 2369 2687 2733 
Q 2419 3097 1959 3097 
z
M 1959 3584 
Q 2709 3584 3137 3096 
Q 3566 2609 3566 1747 
Q 3566 888 3137 398 
Q 2709 -91 1959 -91 
Q 1206 -91 779 398 
Q 353 888 353 1747 
Q 353 2609 779 3096 
Q 1206 3584 1959 3584 
z
" transform="scale(0.015625)"/>
       <path id="DejaVuSans-6c" d="M 603 4863 
L 1178 4863 
L 1178 0 
L 603 0 
L 603 4863 
z
" transform="scale(0.015625)"/>
       <path id="DejaVuSans-61" d="M 2194 1759 
Q 1497 1759 1228 1600 
Q 959 1441 959 1056 
Q 959 750 1161 570 
Q 1363 391 1709 391 
Q 2188 391 2477 730 
Q 2766 1069 2766 1631 
L 2766 1759 
L 2194 1759 
z
M 3341 1997 
L 3341 0 
L 2766 0 
L 2766 531 
Q 2569 213 2275 61 
Q 1981 -91 1556 -91 
Q 1019 -91 701 211 
Q 384 513 384 1019 
Q 384 1609 779 1909 
Q 1175 2209 1959 2209 
L 2766 2209 
L 2766 2266 
Q 2766 2663 2505 2880 
Q 2244 3097 1772 3097 
Q 1472 3097 1187 3025 
Q 903 2953 641 2809 
L 641 3341 
Q 956 3463 1253 3523 
Q 1550 3584 1831 3584 
Q 2591 3584 2966 3190 
Q 3341 2797 3341 1997 
z
" transform="scale(0.015625)"/>
       <path id="DejaVuSans-67" d="M 2906 1791 
Q 2906 2416 2648 2759 
Q 2391 3103 1925 3103 
Q 1463 3103 1205 2759 
Q 947 2416 947 1791 
Q 947 1169 1205 825 
Q 1463 481 1925 481 
Q 2391 481 2648 825 
Q 2906 1169 2906 1791 
z
M 3481 434 
Q 3481 -459 3084 -895 
Q 2688 -1331 1869 -1331 
Q 1566 -1331 1297 -1286 
Q 1028 -1241 775 -1147 
L 775 -588 
Q 1028 -725 1275 -790 
Q 1522 -856 1778 -856 
Q 2344 -856 2625 -561 
Q 2906 -266 2906 331 
L 2906 616 
Q 2728 306 2450 153 
Q 2172 0 1784 0 
Q 1141 0 747 490 
Q 353 981 353 1791 
Q 353 2603 747 3093 
Q 1141 3584 1784 3584 
Q 2172 3584 2450 3431 
Q 2728 3278 2906 2969 
L 2906 3500 
L 3481 3500 
L 3481 434 
z
" transform="scale(0.015625)"/>
      </defs>
      <use xlink:href="#DejaVuSans-56"/>
      <use xlink:href="#DejaVuSans-6f" x="60.658203"/>
      <use xlink:href="#DejaVuSans-6c" x="121.839844"/>
      <use xlink:href="#DejaVuSans-74" x="149.623047"/>
      <use xlink:href="#DejaVuSans-61" x="188.832031"/>
      <use xlink:href="#DejaVuSans-67" x="250.111328"/>
      <use xlink:href="#DejaVuSans-65" x="313.587891"/>
      <use xlink:href="#DejaVuSans-20" x="375.111328"/>
      <use xlink:href="#DejaVuSans-5b" x="406.898438"/>
      <use xlink:href="#DejaVuSans-6d" x="445.912109"/>
      <use xlink:href="#DejaVuSans-56" x="543.324219"/>
      <use xlink:href="#DejaVuSans-5d" x="611.732422"/>
     </g>
    </g>
   </g>
   <g id="line2d_11">
    <path d="M 80.754545 302.01241 
L 81.094817 302.73923 
L 81.4055 302.963896 
L 81.844402 302.977475 
L 87.683269 302.33447 
L 93.172001 302.240842 
L 100.480448 302.225402 
L 100.633324 334.011602 
L 100.934144 352.272183 
L 101.308936 362.948196 
L 101.664002 367.599094 
L 101.964823 369.130834 
L 102.176876 369.358509 
L 102.329752 369.219255 
L 102.576326 368.622992 
L 103.049747 366.770992 
L 104.484807 360.946916 
L 105.209734 359.010032 
L 105.910003 357.739761 
L 106.625067 356.885148 
L 107.40424 356.295958 
L 108.321495 355.886274 
L 109.529706 355.604246 
L 111.403667 355.42001 
L 115.393231 355.299152 
L 126.98713 355.219908 
L 130.069303 355.214826 
L 130.222178 322.698557 
L 130.532861 302.406699 
L 130.897791 291.18814 
L 131.242994 286.477583 
L 131.538882 284.938266 
L 131.760799 284.665994 
L 131.923538 284.774919 
L 132.175043 285.280553 
L 132.643533 286.820642 
L 134.724616 294.179846 
L 135.60735 296.278858 
L 136.490084 297.824598 
L 137.407339 298.994909 
L 138.393634 299.89794 
L 139.488421 300.599336 
L 139.932254 300.817227 
L 140.045678 302.278741 
L 140.38595 302.85494 
L 140.716359 302.988398 
L 141.293341 302.933463 
L 144.173323 302.497608 
L 147.339331 302.318122 
L 153.41984 302.2356 
L 159.663088 302.225402 
L 159.815964 295.900717 
L 160.106921 292.527895 
L 160.457056 290.742393 
L 160.807191 289.96314 
L 161.152394 289.681388 
L 161.537049 289.656503 
L 162.114032 289.872634 
L 165.393463 291.401181 
L 167.129343 291.819927 
L 169.407684 292.12777 
L 172.756156 292.336619 
L 178.703516 292.452658 
L 189.251943 292.486033 
L 189.404818 298.749483 
L 189.695776 302.020592 
L 190.050842 303.775496 
L 190.41084 304.561136 
L 190.765906 304.853017 
L 191.165355 304.890146 
L 191.762064 304.691957 
L 195.233823 303.23119 
L 197.102852 302.831809 
L 199.114894 302.582935 
L 199.119826 302.01241 
L 199.228318 302.278741 
L 199.56859 302.85494 
L 199.898999 302.988398 
L 200.475981 302.933463 
L 203.355963 302.497608 
L 206.521971 302.318122 
L 212.60248 302.2356 
L 218.845729 302.225402 
L 218.998604 289.590429 
L 219.28463 283.024116 
L 219.629833 279.619378 
L 219.970105 278.196947 
L 220.280788 277.713812 
L 220.566814 277.634024 
L 220.912017 277.789119 
L 221.503794 278.344282 
L 223.851176 280.727298 
L 225.019936 281.506879 
L 226.321846 282.103098 
L 227.890055 282.568566 
L 229.91196 282.925133 
L 232.732764 283.180875 
L 237.225339 283.340955 
L 246.812127 283.412918 
L 248.434583 283.415759 
L 248.587459 295.800054 
L 248.873484 301.98582 
L 249.223619 305.271535 
L 249.573754 306.724657 
L 249.899231 307.26016 
L 250.200051 307.376664 
L 250.555117 307.259838 
L 251.151826 306.785819 
L 253.474551 304.781138 
L 254.766598 304.038665 
L 256.226314 303.460831 
L 257.986851 303.010899 
L 258.297534 302.951488 
L 258.302466 302.01241 
L 258.410958 302.278741 
L 258.75123 302.85494 
L 259.081639 302.988398 
L 259.658622 302.933463 
L 262.538603 302.497608 
L 265.704611 302.318122 
L 271.78512 302.2356 
L 278.028369 302.225402 
L 278.181244 283.296177 
L 278.46727 273.623957 
L 278.80261 268.883291 
L 279.133019 266.929153 
L 279.448634 266.209464 
L 279.76918 265.983739 
L 280.10452 265.752649 
L 280.173561 265.394744 
L 280.193286 262.067739 
L 280.227807 168.550433 
L 280.277122 81.260513 
L 280.341231 148.012266 
L 280.513832 241.498938 
L 280.760406 255.728945 
L 280.765338 255.696493 
L 280.785064 251.142916 
L 280.868899 92.289179 
L 280.962597 192.777433 
L 281.125335 245.533935 
L 281.396567 263.657105 
L 281.702318 271.283572 
L 282.017932 274.344912 
L 282.333547 275.524415 
L 282.649161 275.948278 
L 283.014091 276.070592 
L 283.645319 276.001591 
L 286.924751 275.461051 
L 290.120347 275.238678 
L 295.579491 275.111214 
L 307.617223 275.063198 
L 307.770099 293.417652 
L 308.051193 302.18031 
L 308.396396 306.780016 
L 308.741599 308.793172 
L 309.057214 309.522246 
L 309.333376 309.685477 
L 309.619402 309.588037 
L 310.058303 309.163543 
L 311.345419 307.462909 
L 312.578287 306.064438 
L 313.751979 305.066766 
L 315.014436 304.285341 
L 316.444564 303.664899 
L 317.480174 303.341421 
L 317.485106 302.01241 
L 317.593598 302.278741 
L 317.93387 302.85494 
L 318.264279 302.988398 
L 318.841262 302.933463 
L 321.721243 302.497608 
L 324.887251 302.318122 
L 330.96776 302.2356 
L 337.211009 302.225402 
L 337.363884 277.019746 
L 337.644979 264.520059 
L 337.970456 258.601443 
L 338.305796 256.042405 
L 338.611548 254.204477 
L 338.631274 247.929765 
L 338.710177 73.547018 
L 338.794012 174.828851 
L 338.946888 235.023513 
L 339.163873 245.745121 
L 339.173736 245.178187 
L 339.198393 226.231219 
L 339.267434 88.777993 
L 339.341406 164.360469 
L 339.504145 236.269773 
L 339.765513 253.514084 
L 340.066333 260.843114 
L 340.381948 263.800964 
L 340.702494 264.976209 
L 341.042765 265.46645 
L 341.481667 265.701159 
L 342.408784 265.875262 
L 347.552313 266.496535 
L 353.938574 266.918739 
L 358.263479 267.022768 
L 366.799863 266.937837 
L 366.952739 291.108864 
L 367.228901 302.194138 
L 367.574105 308.12017 
L 367.919308 310.717635 
L 368.234922 311.66061 
L 368.496291 311.873973 
L 368.742864 311.798632 
L 369.102862 311.415303 
L 369.847515 310.218845 
L 371.415724 307.743806 
L 372.545032 306.392163 
L 373.703929 305.34646 
L 374.956524 304.514957 
L 376.366926 303.849134 
L 376.662814 303.737474 
L 376.667746 302.01241 
L 376.776238 302.278741 
L 377.11651 302.85494 
L 377.446919 302.988398 
L 378.023902 302.933463 
L 380.903884 302.497608 
L 384.069891 302.318122 
L 390.150401 302.2356 
L 396.393649 302.225402 
L 396.546525 270.762984 
L 396.822687 255.651753 
L 397.143233 248.659358 
L 397.508162 242.756223 
L 397.537751 173.704059 
L 397.591997 66.96 
L 397.651175 135.861562 
L 397.823777 228.615225 
L 398.040762 237.593241 
L 398.050625 237.39978 
L 398.070351 230.051377 
L 398.144323 84.639096 
L 398.228158 169.460588 
L 398.385965 230.193969 
L 398.647333 245.365441 
L 398.948153 251.730204 
L 399.258836 254.235469 
L 399.584314 255.275317 
L 399.934448 255.716277 
L 400.284583 255.832023 
L 400.521294 255.704482 
L 400.659375 255.365287 
L 400.693896 254.622538 
L 400.718553 238.674871 
L 400.787594 85.479961 
L 400.866497 165.881521 
L 401.029236 236.066133 
L 401.290604 249.814087 
L 401.601287 256.0233 
L 401.921833 258.551114 
L 402.242379 259.552195 
L 402.562925 259.914277 
L 402.91306 259.986709 
L 403.34703 259.838611 
L 403.702096 259.494766 
L 403.874697 259.014195 
L 403.899355 258.326504 
L 403.924012 243.269428 
L 403.997984 91.090695 
L 404.076888 173.830217 
L 404.234695 238.09482 
L 404.491132 251.457432 
L 404.673597 255.100759 
L 404.688391 254.563972 
L 404.713048 238.514523 
L 404.78702 93.781971 
L 404.865924 174.009306 
L 405.028663 240.361695 
L 405.2851 256.443656 
L 405.571125 262.550323 
L 405.852219 264.544558 
L 406.103724 265.037229 
L 406.315778 265.050412 
L 406.631392 264.793743 
L 409.205623 262.197788 
L 411.054926 260.955695 
L 411.686155 260.377695 
L 411.913003 259.87132 
L 411.957386 259.19703 
L 411.982044 246.20835 
L 412.056016 93.072815 
L 412.134919 172.300436 
L 412.292727 238.168167 
L 412.401219 244.83623 
L 412.420945 241.774345 
L 412.465328 154.515006 
L 412.50478 110.117704 
L 412.568889 161.02802 
L 412.736559 237.745519 
L 412.992996 254.723266 
L 413.288885 261.658959 
L 413.584773 264.11667 
L 413.856004 264.843627 
L 414.097647 264.966225 
L 414.383672 264.832461 
L 415.000107 264.224771 
L 416.528864 262.740188 
L 417.929403 261.72051 
L 419.72446 260.424842 
L 419.971034 259.925744 
L 420.02528 259.354535 
L 420.049938 249.295018 
L 420.128841 93.564808 
L 420.207745 175.727453 
L 420.365552 238.39681 
L 420.464182 244.573293 
L 420.488839 240.473754 
L 420.548017 123.509024 
L 420.572674 110.80801 
L 420.62692 151.856381 
L 420.804454 237.959093 
L 421.06089 254.719855 
L 421.356779 261.618714 
L 421.652667 264.07958 
L 421.92883 264.821924 
L 422.170472 264.945836 
L 422.456498 264.816141 
L 423.068001 264.22203 
L 424.626347 262.721265 
L 425.982503 261.738272 
L 426.130447 291.002351 
L 426.401679 304.072462 
L 426.737019 310.721955 
L 427.072359 313.545604 
L 427.373179 314.511445 
L 427.619753 314.701265 
L 427.846601 314.592364 
L 428.191804 314.127057 
L 428.906868 312.699537 
L 430.524392 309.499866 
L 431.648769 307.790751 
L 432.778077 306.470597 
L 433.961631 305.42442 
L 435.248746 304.583717 
L 435.845455 304.275688 
L 435.845455 304.275688 
" clip-path="url(#p2552165061)" style="fill: none; stroke: #ff0000; stroke-width: 1.5; stroke-linecap: square"/>
   </g>
   <g id="patch_3">
    <path d="M 63 384.48 
L 63 51.84 
" style="fill: none; stroke: #000000; stroke-width: 0.8; stroke-linejoin: miter; stroke-linecap: square"/>
   </g>
   <g id="patch_4">
    <path d="M 453.6 384.48 
L 453.6 51.84 
" style="fill: none; stroke: #000000; stroke-width: 0.8; stroke-linejoin: miter; stroke-linecap: square"/>
   </g>
   <g id="patch_5">
    <path d="M 63 384.48 
L 453.6 384.48 
" style="fill: none; stroke: #000000; stroke-width: 0.8; stroke-linejoin: miter; stroke-linecap: square"/>
   </g>
   <g id="patch_6">
    <path d="M 63 51.84 
L 453.6 51.84 
" style="fill: none; stroke: #000000; stroke-width: 0.8; stroke-linejoin: miter; stroke-linecap: square"/>
   </g>
   <g id="legend_1">
    <g id="patch_7">
     <path d="M 70 74.518125 
L 133.139062 74.518125 
Q 135.139062 74.518125 135.139062 72.518125 
L 135.139062 58.84 
Q 135.139062 56.84 133.139062 56.84 
L 70 56.84 
Q 68 56.84 68 58.84 
L 68 72.518125 
Q 68 74.518125 70 74.518125 
z
" style="fill: #ffffff; opacity: 0.8; stroke: #cccccc; stroke-linejoin: miter"/>
    </g>
    <g id="line2d_12">
     <path d="M 72 64.938438 
L 82 64.938438 
L 92 64.938438 
" style="fill: none; stroke: #ff0000; stroke-width: 1.5; stroke-linecap: square"/>
    </g>
    <g id="text_13">
     <!-- model -->
     <g transform="translate(100 68.438438)scale(0.1 -0.1)">
      <defs>
       <path id="DejaVuSans-64" d="M 2906 2969 
L 2906 4863 
L 3481 4863 
L 3481 0 
L 2906 0 
L 2906 525 
Q 2725 213 2448 61 
Q 2172 -91 1784 -91 
Q 1150 -91 751 415 
Q 353 922 353 1747 
Q 353 2572 751 3078 
Q 1150 3584 1784 3584 
Q 2172 3584 2448 3432 
Q 2725 3281 2906 2969 
z
M 947 1747 
Q 947 1113 1208 752 
Q 1469 391 1925 391 
Q 2381 391 2643 752 
Q 2906 1113 2906 1747 
Q 2906 2381 2643 2742 
Q 2381 3103 1925 3103 
Q 1469 3103 1208 2742 
Q 947 2381 947 1747 
z
" transform="scale(0.015625)"/>
      </defs>
      <use xlink:href="#DejaVuSans-6d"/>
      <use xlink:href="#DejaVuSans-6f" x="97.412109"/>
      <use xlink:href="#DejaVuSans-64" x="158.59375"/>
      <use xlink:href="#DejaVuSans-65" x="222.070312"/>
      <use xlink:href="#DejaVuSans-6c" x="283.59375"/>
     </g>
    </g>
   </g>
  </g>
 </g>
 <defs>
  <clipPath id="p2552165061">
   <rect x="63" y="51.84" width="390.6" height="332.64"/>
  </clipPath>
 </defs>
</svg>
